<svg width="43" height="32" viewBox="0 0 43 32" fill="none" xmlns="http://www.w3.org/2000/svg">
<path d="M32.3645 2.61741C32.3914 2.04211 32.6406 1.49973 33.0596 1.10462C33.4786 0.709513 34.0347 0.492544 34.6106 0.49948C35.1864 0.506415 35.7371 0.736703 36.1465 1.14179C36.5559 1.54688 36.7919 2.09511 36.8049 2.67089C36.7796 6.51145 37.0917 10.3468 37.7377 14.1328C38.2214 16.9124 33.9503 18.0942 33.4572 15.2797C32.7207 11.0994 32.3551 6.86212 32.3645 2.61741Z" fill="white"/>
<path d="M16.6638 8.00569C19.3955 11.5184 22.469 14.7512 25.8392 17.6568C28.0153 19.5603 24.869 22.6661 22.717 20.8059C19.0794 17.6262 15.7701 14.0895 12.8388 10.249C11.0909 7.99457 14.9368 5.78293 16.6638 8.00569Z" fill="white"/>
<path d="M5.94909 23.6077C10.5922 22.7905 15.3506 22.8926 19.9544 23.9081C22.7408 24.5167 21.5631 28.7983 18.7767 28.1898C14.9405 27.3252 10.9718 27.2227 7.09602 27.8881C4.30474 28.375 3.08509 24.1016 5.94909 23.6077Z" fill="white"/>
</svg>
